<svg width="33" height="33" viewBox="0 0 33 33" fill="none" xmlns="http://www.w3.org/2000/svg">
<path d="M28.2945 8.79961H20.7283C21.5255 7.86857 22.0062 6.6714 22.0062 5.36673C22.0062 2.40742 19.5362 0 16.5001 0C13.4638 0 10.9938 2.40742 10.9938 5.36673C10.9938 6.6714 11.4745 7.86857 12.2717 8.79961H4.70554L0 33H33L28.2945 8.79961ZM16.5001 1.93359C18.4422 1.93359 20.0223 3.47367 20.0223 5.36673C20.0223 7.25954 18.4422 8.79961 16.5001 8.79961C14.5578 8.79961 12.9777 7.25954 12.9777 5.36673C12.9777 3.47367 14.5578 1.93359 16.5001 1.93359ZM6.34871 10.7332H26.6513L30.6049 31.0664H2.39513L6.34871 10.7332Z" fill="#BCBCBC"/>
<path d="M16 18H14.0749L11.3834 20.7756V18H10V25H11.3834V22.6075L12.0811 21.9051L14.1895 25H15.9753L13.0689 20.9234L16 18Z" fill="#BCBCBC"/>
<path d="M19.4571 22.0876H21.4844V22.9383C21.3215 23.0609 21.0996 23.1812 20.8226 23.2967C20.4856 23.4375 20.1353 23.5088 19.7822 23.5088C19.3778 23.5088 18.9908 23.4155 18.6315 23.2315C18.2852 23.0543 18.028 22.7895 17.8458 22.4215C17.6577 22.0421 17.5624 21.5555 17.5624 20.9755C17.5624 20.5056 17.6432 20.0651 17.8017 19.6675C17.8913 19.4464 18.0189 19.2404 18.1811 19.0546C18.3356 18.8777 18.546 18.7311 18.8059 18.6191C19.0706 18.5051 19.3942 18.4472 19.7679 18.4472C20.0724 18.4472 20.3514 18.5016 20.597 18.6087C20.8307 18.7106 21.01 18.8443 21.1297 19.0058C21.2596 19.1807 21.372 19.433 21.4641 19.7557L21.5503 20.0578L22.9628 19.6579L22.8866 19.3523C22.757 18.8317 22.5621 18.3997 22.3069 18.0679C22.045 17.7274 21.6833 17.46 21.2311 17.273C20.7932 17.0917 20.2994 17 19.7633 17C19.028 17 18.3662 17.1597 17.7963 17.4747C17.2129 17.7972 16.7603 18.2953 16.4519 18.9553C16.1519 19.5967 16 20.2958 16 21.0339C16 21.781 16.1538 22.469 16.4578 23.0784C16.7686 23.7021 17.2347 24.1851 17.8436 24.5142C18.4395 24.8365 19.1091 25 19.8338 25C20.371 25 20.9017 24.8992 21.4114 24.7C21.9162 24.5031 22.4112 24.2064 22.8827 23.8184L23 23.7221V20.6057L19.4571 20.6115V22.0876Z" fill="#BCBCBC"/>
</svg>
