<svg xmlns="http://www.w3.org/2000/svg" xmlns:xlink="http://www.w3.org/1999/xlink"><symbol id="big-left-arrow" viewBox="0 0 34 45">
<path d="M34 1.125L2.75443 22.5L34 43.875L32.9671 45L0 22.5L32.9671 0L34 1.125Z" fill="black"/>
</symbol><symbol id="big-right-arrow" viewBox="0 0 33 45">
<path d="M0 1.125L30.3266 22.5L0 43.875L1.00253 45L33 22.5L1.00253 0L0 1.125Z" fill="black"/>
</symbol><symbol id="clock" viewBox="0 0 25 25">
<path d="M12.5 0C5.60758 0 0 5.6073 0 12.5C0 19.3927 5.60758 25 12.5 25C19.3924 25 25 19.3927 25 12.5C25 5.6073 19.3924 0 12.5 0ZM12.5 23.5955C6.38202 23.5955 1.40449 18.618 1.40449 12.5C1.40449 6.38202 6.38202 1.40449 12.5 1.40449C18.618 1.40449 23.5955 6.38202 23.5955 12.5C23.5955 18.618 18.618 23.5955 12.5 23.5955ZM19.382 11.7978H13.2022V3.74522C13.2022 3.3573 12.8879 3.04298 12.5 3.04298C12.1121 3.04298 11.7978 3.3573 11.7978 3.74522V12.5C11.7978 12.8879 12.1121 13.2022 12.5 13.2022H19.382C19.7699 13.2022 20.0843 12.8879 20.0843 12.5C20.0843 12.1121 19.7699 11.7978 19.382 11.7978Z" fill="#BCBCBC"/>
</symbol><symbol id="close" viewBox="0 0 18 16">
<path d="M17 15L9 8M1 1L9 8M9 8L1 15L17 1" stroke="black" stroke-width="2"/>
</symbol><symbol id="distance" viewBox="0 0 36 33">
<path d="M5.09375 16.4778C2.44031 16.4778 0.28125 18.6579 0.28125 21.3361C0.28125 23.9283 4.71706 31.4609 4.90563 31.7798L5.09375 32.0973L5.28144 31.7798C5.47044 31.4596 9.9045 23.9283 9.9045 21.3361C9.9045 18.6574 7.74631 16.4778 5.09375 16.4778ZM5.09375 23.6721C3.90594 23.6721 2.9395 22.6965 2.9395 21.4973C2.9395 20.3 3.90594 19.3252 5.09375 19.3252C6.28025 19.3252 7.24538 20.3 7.24538 21.4973C7.24538 22.6965 6.28025 23.6721 5.09375 23.6721Z" fill="#BCBCBC"/>
<path d="M24.6163 8.3287L24.8044 8.01114C24.8985 7.85259 27.0978 4.11564 27.0978 2.80787C27.0978 1.42633 25.9848 0.302734 24.6163 0.302734C23.2478 0.302734 22.1348 1.42633 22.1348 2.80787C22.1348 4.11564 24.3341 7.85259 24.4281 8.01114L24.6163 8.3287ZM23.4438 2.88693C23.4438 2.23503 23.9701 1.70458 24.6163 1.70458C25.2625 1.70458 25.7875 2.23503 25.7875 2.88693C25.7875 3.53971 25.2625 4.07059 24.6163 4.07059C23.9701 4.07059 23.4438 3.54015 23.4438 2.88693Z" fill="#BCBCBC"/>
<path d="M31.5754 23.523H17.6572C15.6141 23.523 13.9516 21.8451 13.9516 19.7825C13.9516 17.7191 15.6141 16.0407 17.6572 16.0407H31.5754C33.8604 16.0407 35.7189 14.1645 35.7189 11.8586C35.7189 9.55222 33.8604 7.67603 31.5754 7.67603H26.5782V8.11769H31.5754C33.6189 8.11769 35.2814 9.79602 35.2814 11.8586C35.2814 13.9212 33.6189 15.5991 31.5754 15.5991H17.6572C15.3726 15.5991 13.5141 17.4757 13.5141 19.7825C13.5141 22.0885 15.3726 23.9647 17.6572 23.9647H31.5754C33.6189 23.9647 35.2814 25.6435 35.2814 27.706C35.2814 29.7686 33.6189 31.4465 31.5754 31.4465H17.6572H7.51855V31.8882H17.6572H31.5754C33.8604 31.8882 35.7189 30.0129 35.7189 27.706C35.7189 25.3992 33.8604 23.523 31.5754 23.523Z" fill="#BCBCBC"/>
</symbol><symbol id="height" viewBox="0 0 36 36">
<path d="M20.2637 10.4962C20.3978 10.6327 20.5738 10.7013 20.7498 10.7013C20.9258 10.7013 21.1018 10.6327 21.2358 10.4962C21.5046 10.2232 21.5046 9.7801 21.2358 9.5064L18.4865 6.7064C18.2287 6.4439 17.7722 6.4439 17.5144 6.7064L14.7651 9.5064C14.4963 9.7801 14.4963 10.2232 14.7651 10.4962C15.0339 10.7699 15.4684 10.7699 15.7372 10.4962L17.313 8.8918V27.9101L15.7372 26.305C15.4684 26.0313 15.0339 26.0313 14.7651 26.305C14.4963 26.5787 14.4963 27.0211 14.7651 27.2948L17.5144 30.0948C17.643 30.2264 17.8183 30.2999 18.0005 30.2999C18.1826 30.2999 18.358 30.2264 18.4865 30.0948L21.2358 27.2948C21.5046 27.0211 21.5046 26.5787 21.2358 26.305C20.967 26.0313 20.5325 26.0313 20.2637 26.305L18.688 27.9101V8.8918L20.2637 10.4962Z" fill="#BCBCBC"/>
<path d="M18 0.899902C8.52281 0.899902 0.8125 8.7504 0.8125 18.3999C0.8125 28.0494 8.52281 35.8999 18 35.8999C27.4772 35.8999 35.1875 28.0494 35.1875 18.3999C35.1875 8.7504 27.4772 0.899902 18 0.899902ZM18 34.4999C9.28113 34.4999 2.1875 27.278 2.1875 18.3999C2.1875 9.5225 9.28113 2.2999 18 2.2999C26.7196 2.2999 33.8125 9.5225 33.8125 18.3999C33.8125 27.278 26.7196 34.4999 18 34.4999Z" fill="#BCBCBC"/>
</symbol><symbol id="left-arrow" viewBox="0 0 42 8">
<path d="M0.646446 3.64644C0.451183 3.84171 0.451183 4.15829 0.646446 4.35355L3.82843 7.53553C4.02369 7.73079 4.34027 7.73079 4.53553 7.53553C4.7308 7.34027 4.7308 7.02369 4.53553 6.82842L1.70711 4L4.53553 1.17157C4.7308 0.976307 4.7308 0.659725 4.53553 0.464463C4.34027 0.269201 4.02369 0.269201 3.82843 0.464463L0.646446 3.64644ZM42 3.5L1 3.5L1 4.5L42 4.5L42 3.5Z" fill="#686868" fill-opacity="0.52"/>
</symbol><symbol id="logo" viewBox="0 0 66 28">
<path d="M56.9746 14.8502L20.331 14.9795C19.9528 14.9795 19.8679 14.5483 20.2384 14.4621L65.5739 3.63217C65.8673 3.56441 66.1143 3.82314 65.9445 4.02644L57.2525 14.727C57.183 14.8009 57.0827 14.8502 56.9746 14.8502Z" fill="#BFBFBF"/>
<path d="M35.3027 1L1 13.2321H43L35.3027 1Z" fill="white" stroke="#A81E1E" stroke-width="2" stroke-miterlimit="10" stroke-linecap="round" stroke-linejoin="round"/>
<path d="M55.7966 13.9559L17 14.1058L65 1.87372L55.7966 13.9559Z" fill="#3636F9" stroke="white" stroke-miterlimit="10" stroke-linecap="round" stroke-linejoin="round"/>
<path d="M52 27.2116L1 14.9795H43.8094L52 27.2116Z" fill="#DA0100"/>
</symbol><symbol id="mail" viewBox="0 0 19 14">
<path d="M17.7818 13.0001V0.986328H1.42676V13.0001H17.7818Z" stroke="#969696"/>
<path d="M1.5791 1.13965L8.63467 8.27518C9.15763 8.80116 10.1092 8.79493 10.6212 8.27997L17.6719 1.19708" stroke="#969696"/>
<path d="M1.82129 12.6045L7.22721 7.08887" stroke="#969696"/>
<path d="M17.3256 12.5406L12.0654 7.16504" stroke="#969696"/>
</symbol><symbol id="phone" viewBox="0 0 14 14">
<path d="M2.83704 9.30626C4.22312 10.9569 5.89167 12.2565 7.79609 13.1761C8.52116 13.5184 9.49084 13.9246 10.5712 13.9942C10.6382 13.9971 10.7022 14 10.7692 14C11.4943 14 12.0767 13.7505 12.5513 13.237C12.5542 13.2341 12.56 13.2283 12.5629 13.2225C12.7318 13.0195 12.924 12.8367 13.125 12.6424C13.2618 12.5118 13.4016 12.3755 13.5355 12.2362C14.1558 11.5922 14.1558 10.7741 13.5297 10.1504L11.7796 8.40696C11.4826 8.09946 11.1274 7.93701 10.7546 7.93701C10.3819 7.93701 10.0237 8.09946 9.71797 8.40406L8.6755 9.4426C8.5794 9.38748 8.4804 9.33817 8.38721 9.29175C8.27073 9.23373 8.16299 9.17862 8.0669 9.1177C7.1176 8.5172 6.25567 7.73394 5.43158 6.72731C5.01518 6.20224 4.73563 5.76129 4.54053 5.31165C4.81425 5.06506 5.0705 4.80688 5.31802 4.5545C5.40538 4.46457 5.49565 4.37464 5.58592 4.28471C5.90041 3.9714 6.0693 3.60879 6.0693 3.24036C6.0693 2.87194 5.90332 2.50932 5.58592 2.19602L4.71816 1.33154C4.61624 1.23 4.52014 1.13137 4.42114 1.02984C4.22895 0.832574 4.02802 0.629507 3.83001 0.446747C3.53008 0.15375 3.17774 0 2.80501 0C2.43519 0 2.07993 0.153751 1.76835 0.449648L0.679282 1.5346C0.283257 1.92913 0.0590366 2.40779 0.0124454 2.96187C-0.0428816 3.6552 0.0852442 4.39204 0.417206 5.28264C0.926798 6.66059 1.69555 7.93991 2.83704 9.30626ZM0.722961 3.02279C0.757905 2.63697 0.906414 2.31496 1.18596 2.03647L2.26921 0.957315C2.4381 0.794861 2.62446 0.710734 2.80501 0.710734C2.98263 0.710734 3.16318 0.794861 3.32916 0.963116C3.52426 1.14298 3.70771 1.33154 3.90572 1.5317C4.00473 1.63324 4.10665 1.73477 4.20857 1.8392L5.07633 2.70369C5.25687 2.88355 5.35005 3.06631 5.35005 3.24617C5.35005 3.42603 5.25687 3.60879 5.07633 3.78865C4.98606 3.87857 4.89579 3.97141 4.80551 4.06133C4.5347 4.33402 4.28136 4.59221 4.00182 4.83879C3.99599 4.84459 3.99308 4.84749 3.98726 4.85329C3.74557 5.09407 3.78342 5.32325 3.84166 5.49731C3.84457 5.50601 3.84748 5.51181 3.8504 5.52051C4.07462 6.05719 4.38619 6.56776 4.87249 7.17696C5.74607 8.25031 6.66625 9.08288 7.67961 9.724C7.80482 9.80522 7.93877 9.86904 8.06399 9.93286C8.18046 9.99088 8.28821 10.046 8.3843 10.1069C8.39595 10.1127 8.40469 10.1185 8.41633 10.1243C8.51243 10.1736 8.60561 10.1969 8.69879 10.1969C8.93175 10.1969 9.08317 10.0489 9.13267 9.99959L10.2217 8.91463C10.3906 8.74637 10.5741 8.65644 10.7546 8.65644C10.9759 8.65644 11.1565 8.79279 11.27 8.91463L13.0259 10.661C13.3754 11.0091 13.3725 11.3862 13.0172 11.7547C12.8949 11.8852 12.7668 12.0099 12.6299 12.1405C12.4261 12.3378 12.2135 12.5408 12.0213 12.77C11.6865 13.1297 11.2875 13.298 10.7721 13.298C10.7226 13.298 10.6702 13.2951 10.6207 13.2922C9.66556 13.2312 8.77741 12.8599 8.11058 12.5437C6.29934 11.6705 4.70942 10.4318 3.39031 8.85951C2.30415 7.55698 1.57325 6.34438 1.08987 5.04476C0.789936 4.247 0.67637 3.60588 0.722961 3.02279Z" fill="#5A5A5A"/>
</symbol><symbol id="right-arrow" viewBox="0 0 42 8">
<path d="M41.3536 4.35355C41.5488 4.15829 41.5488 3.84171 41.3536 3.64645L38.1716 0.464466C37.9763 0.269204 37.6597 0.269204 37.4645 0.464466C37.2692 0.659728 37.2692 0.976311 37.4645 1.17157L40.2929 4L37.4645 6.82843C37.2692 7.02369 37.2692 7.34027 37.4645 7.53553C37.6597 7.7308 37.9763 7.7308 38.1716 7.53553L41.3536 4.35355ZM0 4.5H41V3.5H0L0 4.5Z" fill="#686868" fill-opacity="0.52"/>
</symbol><symbol id="speed" viewBox="0 0 36 27">
<path d="M35.5156 18.6469H33.7344C33.7344 16.5154 33.3274 14.4047 32.5367 12.4354C31.7459 10.4662 30.587 8.67686 29.1259 7.16965C27.6648 5.66244 25.9303 4.46685 24.0213 3.65116C22.1123 2.83546 20.0663 2.41563 18 2.41563C15.9337 2.41563 13.8877 2.83546 11.9787 3.65116C10.0697 4.46685 8.33519 5.66244 6.87412 7.16965C5.41304 8.67686 4.25406 10.4662 3.46333 12.4354C2.67261 14.4047 2.26562 16.5154 2.26562 18.6469H0.484375C0.484375 16.2741 0.93743 13.9245 1.81767 11.7323C2.69791 9.54006 3.98811 7.54818 5.61458 5.87034C7.24106 4.1925 9.17197 2.86157 11.2971 1.95353C13.4222 1.04549 15.6998 0.578125 18 0.578125C20.3002 0.578125 22.5778 1.04549 24.7029 1.95353C26.828 2.86157 28.7589 4.1925 30.3854 5.87034C32.0119 7.54818 33.3021 9.54006 34.1823 11.7323C35.0626 13.9245 35.5156 16.2741 35.5156 18.6469Z" fill="#BCBCBC"/>
<path d="M17.9998 26.6215C17.2691 26.619 16.5602 26.3637 15.9867 25.8965C15.4132 25.4292 15.0083 24.7771 14.8365 24.0443C14.6648 23.3116 14.7363 22.5406 15.0396 21.8547C15.3429 21.1689 15.8604 20.6077 16.5094 20.2612C17.1584 19.9146 17.9013 19.8026 18.6192 19.943C19.3372 20.0835 19.9888 20.4683 20.4697 21.036C20.9506 21.6036 21.233 22.3212 21.2718 23.074C21.3106 23.8268 21.1034 24.5713 20.6836 25.1883C20.382 25.6333 19.9802 25.9962 19.5128 26.2458C19.0454 26.4954 18.5262 26.6244 17.9998 26.6215ZM17.9998 21.7215H17.7386C17.3999 21.7812 17.0918 21.9603 16.8667 22.2281C16.6417 22.496 16.5138 22.8361 16.5047 23.1904C16.4956 23.5447 16.6059 23.8913 16.8169 24.1711C17.0279 24.4509 17.3264 24.6465 17.6616 24.7246C17.9967 24.8026 18.3478 24.7583 18.6548 24.5992C18.9619 24.4401 19.2059 24.1761 19.3453 23.8521C19.4847 23.5281 19.5108 23.1643 19.4192 22.8227C19.3276 22.4811 19.1239 22.1828 18.843 21.9788C18.5939 21.8064 18.2997 21.7167 17.9998 21.7215Z" fill="#BCBCBC"/>
<path d="M25.4181 10.6839L18.6069 20.7185L20.066 21.7725L26.8772 11.7378L25.4181 10.6839Z" fill="#BCBCBC"/>
</symbol><symbol id="top-arrow" viewBox="0 0 8 28">
<path d="M4.35355 0.646444C4.15829 0.451183 3.84171 0.451183 3.64645 0.646444L0.464465 3.82842C0.269203 4.02369 0.269203 4.34027 0.464465 4.53553C0.659727 4.7308 0.97631 4.7308 1.17157 4.53553L4 1.70711L6.82843 4.53553C7.02369 4.73079 7.34027 4.73079 7.53553 4.53553C7.7308 4.34027 7.7308 4.02369 7.53553 3.82842L4.35355 0.646444ZM4.5 28L4.5 0.999998L3.5 0.999998L3.5 28L4.5 28Z" fill="black"/>
</symbol><symbol id="weight" viewBox="0 0 33 33">
<path d="M28.2945 8.79961H20.7283C21.5255 7.86857 22.0062 6.6714 22.0062 5.36673C22.0062 2.40742 19.5362 0 16.5001 0C13.4638 0 10.9938 2.40742 10.9938 5.36673C10.9938 6.6714 11.4745 7.86857 12.2717 8.79961H4.70554L0 33H33L28.2945 8.79961ZM16.5001 1.93359C18.4422 1.93359 20.0223 3.47367 20.0223 5.36673C20.0223 7.25954 18.4422 8.79961 16.5001 8.79961C14.5578 8.79961 12.9777 7.25954 12.9777 5.36673C12.9777 3.47367 14.5578 1.93359 16.5001 1.93359ZM6.34871 10.7332H26.6513L30.6049 31.0664H2.39513L6.34871 10.7332Z" fill="#BCBCBC"/>
<path d="M16 18H14.0749L11.3834 20.7756V18H10V25H11.3834V22.6075L12.0811 21.9051L14.1895 25H15.9753L13.0689 20.9234L16 18Z" fill="#BCBCBC"/>
<path d="M19.4571 22.0876H21.4844V22.9383C21.3215 23.0609 21.0996 23.1812 20.8226 23.2967C20.4856 23.4375 20.1353 23.5088 19.7822 23.5088C19.3778 23.5088 18.9908 23.4155 18.6315 23.2315C18.2852 23.0543 18.028 22.7895 17.8458 22.4215C17.6577 22.0421 17.5624 21.5555 17.5624 20.9755C17.5624 20.5056 17.6432 20.0651 17.8017 19.6675C17.8913 19.4464 18.0189 19.2404 18.1811 19.0546C18.3356 18.8777 18.546 18.7311 18.8059 18.6191C19.0706 18.5051 19.3942 18.4472 19.7679 18.4472C20.0724 18.4472 20.3514 18.5016 20.597 18.6087C20.8307 18.7106 21.01 18.8443 21.1297 19.0058C21.2596 19.1807 21.372 19.433 21.4641 19.7557L21.5503 20.0578L22.9628 19.6579L22.8866 19.3523C22.757 18.8317 22.5621 18.3997 22.3069 18.0679C22.045 17.7274 21.6833 17.46 21.2311 17.273C20.7932 17.0917 20.2994 17 19.7633 17C19.028 17 18.3662 17.1597 17.7963 17.4747C17.2129 17.7972 16.7603 18.2953 16.4519 18.9553C16.1519 19.5967 16 20.2958 16 21.0339C16 21.781 16.1538 22.469 16.4578 23.0784C16.7686 23.7021 17.2347 24.1851 17.8436 24.5142C18.4395 24.8365 19.1091 25 19.8338 25C20.371 25 20.9017 24.8992 21.4114 24.7C21.9162 24.5031 22.4112 24.2064 22.8827 23.8184L23 23.7221V20.6057L19.4571 20.6115V22.0876Z" fill="#BCBCBC"/>
</symbol><symbol id="wind" viewBox="0 0 26 27">
<path d="M20.913 1.38672C18.1079 1.38672 15.8261 4.18652 15.8261 7.627C15.8261 8.00974 16.0787 8.32036 16.3913 8.32036C16.7039 8.32036 16.9565 8.00974 16.9565 7.627C16.9565 4.95061 18.7319 2.77345 20.913 2.77345C23.0942 2.77345 24.8696 4.95061 24.8696 7.627C24.8696 10.3034 23.0942 12.4806 20.913 12.4806H0.565217C0.253217 12.4806 0 12.7912 0 13.1739C0 13.5567 0.253217 13.8673 0.565217 13.8673H20.913C23.7182 13.8673 26 11.0675 26 7.627C26 4.18652 23.7182 1.38672 20.913 1.38672Z" fill="#BCBCBC"/>
<path d="M10.1739 0C7.99217 0 6.21739 2.17717 6.21739 4.85355C6.21739 5.23629 6.47061 5.54692 6.78261 5.54692C7.09461 5.54692 7.34783 5.23629 7.34783 4.85355C7.34783 2.94195 8.61561 1.38673 10.1739 1.38673C11.7322 1.38673 13 2.94195 13 4.85355C13 6.76516 11.7322 8.32038 10.1739 8.32038H0.565217C0.253217 8.32038 0 8.631 0 9.01374C0 9.39648 0.253217 9.7071 0.565217 9.7071H10.1739C12.3557 9.7071 14.1304 7.52994 14.1304 4.85355C14.1304 2.17717 12.3557 0 10.1739 0Z" fill="#BCBCBC"/>
<path d="M19.7826 16.6407H0.565217C0.253217 16.6407 0 16.9514 0 17.3341C0 17.7168 0.253217 18.0275 0.565217 18.0275H19.7826C21.3409 18.0275 22.6087 19.5827 22.6087 21.4943C22.6087 23.4059 21.3409 24.9611 19.7826 24.9611C18.2243 24.9611 16.9565 23.4059 16.9565 21.4943C16.9565 21.1116 16.7039 20.8009 16.3913 20.8009C16.0787 20.8009 15.8261 21.1116 15.8261 21.4943C15.8261 24.1707 17.6014 26.3478 19.7826 26.3478C21.9638 26.3478 23.7391 24.1707 23.7391 21.4943C23.7391 18.8179 21.9638 16.6407 19.7826 16.6407Z" fill="#BCBCBC"/>
</symbol></svg>