<svg width="25" height="25" viewBox="0 0 25 25" fill="none" xmlns="http://www.w3.org/2000/svg">
<path d="M12.5 0C5.60758 0 0 5.6073 0 12.5C0 19.3927 5.60758 25 12.5 25C19.3924 25 25 19.3927 25 12.5C25 5.6073 19.3924 0 12.5 0ZM12.5 23.5955C6.38202 23.5955 1.40449 18.618 1.40449 12.5C1.40449 6.38202 6.38202 1.40449 12.5 1.40449C18.618 1.40449 23.5955 6.38202 23.5955 12.5C23.5955 18.618 18.618 23.5955 12.5 23.5955ZM19.382 11.7978H13.2022V3.74522C13.2022 3.3573 12.8879 3.04298 12.5 3.04298C12.1121 3.04298 11.7978 3.3573 11.7978 3.74522V12.5C11.7978 12.8879 12.1121 13.2022 12.5 13.2022H19.382C19.7699 13.2022 20.0843 12.8879 20.0843 12.5C20.0843 12.1121 19.7699 11.7978 19.382 11.7978Z" fill="#BCBCBC"/>
</svg>
