<svg width="36" height="33" viewBox="0 0 36 33" fill="none" xmlns="http://www.w3.org/2000/svg">
<path d="M5.09375 16.4778C2.44031 16.4778 0.28125 18.6579 0.28125 21.3361C0.28125 23.9283 4.71706 31.4609 4.90563 31.7798L5.09375 32.0973L5.28144 31.7798C5.47044 31.4596 9.9045 23.9283 9.9045 21.3361C9.9045 18.6574 7.74631 16.4778 5.09375 16.4778ZM5.09375 23.6721C3.90594 23.6721 2.9395 22.6965 2.9395 21.4973C2.9395 20.3 3.90594 19.3252 5.09375 19.3252C6.28025 19.3252 7.24538 20.3 7.24538 21.4973C7.24538 22.6965 6.28025 23.6721 5.09375 23.6721Z" fill="#BCBCBC"/>
<path d="M24.6163 8.3287L24.8044 8.01114C24.8985 7.85259 27.0978 4.11564 27.0978 2.80787C27.0978 1.42633 25.9848 0.302734 24.6163 0.302734C23.2478 0.302734 22.1348 1.42633 22.1348 2.80787C22.1348 4.11564 24.3341 7.85259 24.4281 8.01114L24.6163 8.3287ZM23.4438 2.88693C23.4438 2.23503 23.9701 1.70458 24.6163 1.70458C25.2625 1.70458 25.7875 2.23503 25.7875 2.88693C25.7875 3.53971 25.2625 4.07059 24.6163 4.07059C23.9701 4.07059 23.4438 3.54015 23.4438 2.88693Z" fill="#BCBCBC"/>
<path d="M31.5754 23.523H17.6572C15.6141 23.523 13.9516 21.8451 13.9516 19.7825C13.9516 17.7191 15.6141 16.0407 17.6572 16.0407H31.5754C33.8604 16.0407 35.7189 14.1645 35.7189 11.8586C35.7189 9.55222 33.8604 7.67603 31.5754 7.67603H26.5782V8.11769H31.5754C33.6189 8.11769 35.2814 9.79602 35.2814 11.8586C35.2814 13.9212 33.6189 15.5991 31.5754 15.5991H17.6572C15.3726 15.5991 13.5141 17.4757 13.5141 19.7825C13.5141 22.0885 15.3726 23.9647 17.6572 23.9647H31.5754C33.6189 23.9647 35.2814 25.6435 35.2814 27.706C35.2814 29.7686 33.6189 31.4465 31.5754 31.4465H17.6572H7.51855V31.8882H17.6572H31.5754C33.8604 31.8882 35.7189 30.0129 35.7189 27.706C35.7189 25.3992 33.8604 23.523 31.5754 23.523Z" fill="#BCBCBC"/>
</svg>
