<svg width="36" height="36" viewBox="0 0 36 36" fill="none" xmlns="http://www.w3.org/2000/svg">
<path d="M20.2637 10.4962C20.3978 10.6327 20.5738 10.7013 20.7498 10.7013C20.9258 10.7013 21.1018 10.6327 21.2358 10.4962C21.5046 10.2232 21.5046 9.7801 21.2358 9.5064L18.4865 6.7064C18.2287 6.4439 17.7722 6.4439 17.5144 6.7064L14.7651 9.5064C14.4963 9.7801 14.4963 10.2232 14.7651 10.4962C15.0339 10.7699 15.4684 10.7699 15.7372 10.4962L17.313 8.8918V27.9101L15.7372 26.305C15.4684 26.0313 15.0339 26.0313 14.7651 26.305C14.4963 26.5787 14.4963 27.0211 14.7651 27.2948L17.5144 30.0948C17.643 30.2264 17.8183 30.2999 18.0005 30.2999C18.1826 30.2999 18.358 30.2264 18.4865 30.0948L21.2358 27.2948C21.5046 27.0211 21.5046 26.5787 21.2358 26.305C20.967 26.0313 20.5325 26.0313 20.2637 26.305L18.688 27.9101V8.8918L20.2637 10.4962Z" fill="#BCBCBC"/>
<path d="M18 0.899902C8.52281 0.899902 0.8125 8.7504 0.8125 18.3999C0.8125 28.0494 8.52281 35.8999 18 35.8999C27.4772 35.8999 35.1875 28.0494 35.1875 18.3999C35.1875 8.7504 27.4772 0.899902 18 0.899902ZM18 34.4999C9.28113 34.4999 2.1875 27.278 2.1875 18.3999C2.1875 9.5225 9.28113 2.2999 18 2.2999C26.7196 2.2999 33.8125 9.5225 33.8125 18.3999C33.8125 27.278 26.7196 34.4999 18 34.4999Z" fill="#BCBCBC"/>
</svg>
