<svg width="36" height="27" viewBox="0 0 36 27" fill="none" xmlns="http://www.w3.org/2000/svg">
<path d="M35.5156 18.6469H33.7344C33.7344 16.5154 33.3274 14.4047 32.5367 12.4354C31.7459 10.4662 30.587 8.67686 29.1259 7.16965C27.6648 5.66244 25.9303 4.46685 24.0213 3.65116C22.1123 2.83546 20.0663 2.41563 18 2.41563C15.9337 2.41563 13.8877 2.83546 11.9787 3.65116C10.0697 4.46685 8.33519 5.66244 6.87412 7.16965C5.41304 8.67686 4.25406 10.4662 3.46333 12.4354C2.67261 14.4047 2.26562 16.5154 2.26562 18.6469H0.484375C0.484375 16.2741 0.93743 13.9245 1.81767 11.7323C2.69791 9.54006 3.98811 7.54818 5.61458 5.87034C7.24106 4.1925 9.17197 2.86157 11.2971 1.95353C13.4222 1.04549 15.6998 0.578125 18 0.578125C20.3002 0.578125 22.5778 1.04549 24.7029 1.95353C26.828 2.86157 28.7589 4.1925 30.3854 5.87034C32.0119 7.54818 33.3021 9.54006 34.1823 11.7323C35.0626 13.9245 35.5156 16.2741 35.5156 18.6469Z" fill="#BCBCBC"/>
<path d="M17.9998 26.6215C17.2691 26.619 16.5602 26.3637 15.9867 25.8965C15.4132 25.4292 15.0083 24.7771 14.8365 24.0443C14.6648 23.3116 14.7363 22.5406 15.0396 21.8547C15.3429 21.1689 15.8604 20.6077 16.5094 20.2612C17.1584 19.9146 17.9013 19.8026 18.6192 19.943C19.3372 20.0835 19.9888 20.4683 20.4697 21.036C20.9506 21.6036 21.233 22.3212 21.2718 23.074C21.3106 23.8268 21.1034 24.5713 20.6836 25.1883C20.382 25.6333 19.9802 25.9962 19.5128 26.2458C19.0454 26.4954 18.5262 26.6244 17.9998 26.6215ZM17.9998 21.7215H17.7386C17.3999 21.7812 17.0918 21.9603 16.8667 22.2281C16.6417 22.496 16.5138 22.8361 16.5047 23.1904C16.4956 23.5447 16.6059 23.8913 16.8169 24.1711C17.0279 24.4509 17.3264 24.6465 17.6616 24.7246C17.9967 24.8026 18.3478 24.7583 18.6548 24.5992C18.9619 24.4401 19.2059 24.1761 19.3453 23.8521C19.4847 23.5281 19.5108 23.1643 19.4192 22.8227C19.3276 22.4811 19.1239 22.1828 18.843 21.9788C18.5939 21.8064 18.2997 21.7167 17.9998 21.7215Z" fill="#BCBCBC"/>
<path d="M25.4181 10.6839L18.6069 20.7185L20.066 21.7725L26.8772 11.7378L25.4181 10.6839Z" fill="#BCBCBC"/>
</svg>
