<svg width="26" height="27" viewBox="0 0 26 27" fill="none" xmlns="http://www.w3.org/2000/svg">
<path d="M20.913 1.38672C18.1079 1.38672 15.8261 4.18652 15.8261 7.627C15.8261 8.00974 16.0787 8.32036 16.3913 8.32036C16.7039 8.32036 16.9565 8.00974 16.9565 7.627C16.9565 4.95061 18.7319 2.77345 20.913 2.77345C23.0942 2.77345 24.8696 4.95061 24.8696 7.627C24.8696 10.3034 23.0942 12.4806 20.913 12.4806H0.565217C0.253217 12.4806 0 12.7912 0 13.1739C0 13.5567 0.253217 13.8673 0.565217 13.8673H20.913C23.7182 13.8673 26 11.0675 26 7.627C26 4.18652 23.7182 1.38672 20.913 1.38672Z" fill="#BCBCBC"/>
<path d="M10.1739 0C7.99217 0 6.21739 2.17717 6.21739 4.85355C6.21739 5.23629 6.47061 5.54692 6.78261 5.54692C7.09461 5.54692 7.34783 5.23629 7.34783 4.85355C7.34783 2.94195 8.61561 1.38673 10.1739 1.38673C11.7322 1.38673 13 2.94195 13 4.85355C13 6.76516 11.7322 8.32038 10.1739 8.32038H0.565217C0.253217 8.32038 0 8.631 0 9.01374C0 9.39648 0.253217 9.7071 0.565217 9.7071H10.1739C12.3557 9.7071 14.1304 7.52994 14.1304 4.85355C14.1304 2.17717 12.3557 0 10.1739 0Z" fill="#BCBCBC"/>
<path d="M19.7826 16.6407H0.565217C0.253217 16.6407 0 16.9514 0 17.3341C0 17.7168 0.253217 18.0275 0.565217 18.0275H19.7826C21.3409 18.0275 22.6087 19.5827 22.6087 21.4943C22.6087 23.4059 21.3409 24.9611 19.7826 24.9611C18.2243 24.9611 16.9565 23.4059 16.9565 21.4943C16.9565 21.1116 16.7039 20.8009 16.3913 20.8009C16.0787 20.8009 15.8261 21.1116 15.8261 21.4943C15.8261 24.1707 17.6014 26.3478 19.7826 26.3478C21.9638 26.3478 23.7391 24.1707 23.7391 21.4943C23.7391 18.8179 21.9638 16.6407 19.7826 16.6407Z" fill="#BCBCBC"/>
</svg>
